<?xml version="1.0" encoding="utf-8" standalone="no"?>
<!DOCTYPE svg PUBLIC "-//W3C//DTD SVG 1.1//EN"
  "http://www.w3.org/Graphics/SVG/1.1/DTD/svg11.dtd">
<!-- Created with matplotlib (https://matplotlib.org/) -->
<svg height="263.63625pt" version="1.1" viewBox="0 0 377.304687 263.63625" width="377.304687pt" xmlns="http://www.w3.org/2000/svg" xmlns:xlink="http://www.w3.org/1999/xlink">
 <defs>
  <style type="text/css">
*{stroke-linecap:butt;stroke-linejoin:round;}
  </style>
 </defs>
 <g id="figure_1">
  <g id="patch_1">
   <path d="M 0 263.63625 
L 377.304687 263.63625 
L 377.304687 0 
L 0 0 
z
" style="fill:#ffffff;"/>
  </g>
  <g id="axes_1">
   <g id="patch_2">
    <path d="M 35.304688 239.758125 
L 370.104688 239.758125 
L 370.104688 22.318125 
L 35.304688 22.318125 
z
" style="fill:#ffffff;"/>
   </g>
   <g id="matplotlib.axis_1">
    <g id="xtick_1">
     <g id="line2d_1">
      <defs>
       <path d="M 0 0 
L 0 3.5 
" id="m73be02c3da" style="stroke:#000000;stroke-width:0.8;"/>
      </defs>
      <g>
       <use style="stroke:#000000;stroke-width:0.8;" x="80.959233" xlink:href="#m73be02c3da" y="239.758125"/>
      </g>
     </g>
     <g id="text_1">
      <!-- −4 -->
      <defs>
       <path d="M 10.59375 35.5 
L 73.1875 35.5 
L 73.1875 27.203125 
L 10.59375 27.203125 
z
" id="DejaVuSans-8722"/>
       <path d="M 37.796875 64.3125 
L 12.890625 25.390625 
L 37.796875 25.390625 
z
M 35.203125 72.90625 
L 47.609375 72.90625 
L 47.609375 25.390625 
L 58.015625 25.390625 
L 58.015625 17.1875 
L 47.609375 17.1875 
L 47.609375 0 
L 37.796875 0 
L 37.796875 17.1875 
L 4.890625 17.1875 
L 4.890625 26.703125 
z
" id="DejaVuSans-52"/>
      </defs>
      <g transform="translate(73.588139 254.356563)scale(0.1 -0.1)">
       <use xlink:href="#DejaVuSans-8722"/>
       <use x="83.789062" xlink:href="#DejaVuSans-52"/>
      </g>
     </g>
    </g>
    <g id="xtick_2">
     <g id="line2d_2">
      <g>
       <use style="stroke:#000000;stroke-width:0.8;" x="141.83196" xlink:href="#m73be02c3da" y="239.758125"/>
      </g>
     </g>
     <g id="text_2">
      <!-- −2 -->
      <defs>
       <path d="M 19.1875 8.296875 
L 53.609375 8.296875 
L 53.609375 0 
L 7.328125 0 
L 7.328125 8.296875 
Q 12.9375 14.109375 22.625 23.890625 
Q 32.328125 33.6875 34.8125 36.53125 
Q 39.546875 41.84375 41.421875 45.53125 
Q 43.3125 49.21875 43.3125 52.78125 
Q 43.3125 58.59375 39.234375 62.25 
Q 35.15625 65.921875 28.609375 65.921875 
Q 23.96875 65.921875 18.8125 64.3125 
Q 13.671875 62.703125 7.8125 59.421875 
L 7.8125 69.390625 
Q 13.765625 71.78125 18.9375 73 
Q 24.125 74.21875 28.421875 74.21875 
Q 39.75 74.21875 46.484375 68.546875 
Q 53.21875 62.890625 53.21875 53.421875 
Q 53.21875 48.921875 51.53125 44.890625 
Q 49.859375 40.875 45.40625 35.40625 
Q 44.1875 33.984375 37.640625 27.21875 
Q 31.109375 20.453125 19.1875 8.296875 
z
" id="DejaVuSans-50"/>
      </defs>
      <g transform="translate(134.460866 254.356563)scale(0.1 -0.1)">
       <use xlink:href="#DejaVuSans-8722"/>
       <use x="83.789062" xlink:href="#DejaVuSans-50"/>
      </g>
     </g>
    </g>
    <g id="xtick_3">
     <g id="line2d_3">
      <g>
       <use style="stroke:#000000;stroke-width:0.8;" x="202.704688" xlink:href="#m73be02c3da" y="239.758125"/>
      </g>
     </g>
     <g id="text_3">
      <!-- 0 -->
      <defs>
       <path d="M 31.78125 66.40625 
Q 24.171875 66.40625 20.328125 58.90625 
Q 16.5 51.421875 16.5 36.375 
Q 16.5 21.390625 20.328125 13.890625 
Q 24.171875 6.390625 31.78125 6.390625 
Q 39.453125 6.390625 43.28125 13.890625 
Q 47.125 21.390625 47.125 36.375 
Q 47.125 51.421875 43.28125 58.90625 
Q 39.453125 66.40625 31.78125 66.40625 
z
M 31.78125 74.21875 
Q 44.046875 74.21875 50.515625 64.515625 
Q 56.984375 54.828125 56.984375 36.375 
Q 56.984375 17.96875 50.515625 8.265625 
Q 44.046875 -1.421875 31.78125 -1.421875 
Q 19.53125 -1.421875 13.0625 8.265625 
Q 6.59375 17.96875 6.59375 36.375 
Q 6.59375 54.828125 13.0625 64.515625 
Q 19.53125 74.21875 31.78125 74.21875 
z
" id="DejaVuSans-48"/>
      </defs>
      <g transform="translate(199.523438 254.356563)scale(0.1 -0.1)">
       <use xlink:href="#DejaVuSans-48"/>
      </g>
     </g>
    </g>
    <g id="xtick_4">
     <g id="line2d_4">
      <g>
       <use style="stroke:#000000;stroke-width:0.8;" x="263.577415" xlink:href="#m73be02c3da" y="239.758125"/>
      </g>
     </g>
     <g id="text_4">
      <!-- 2 -->
      <g transform="translate(260.396165 254.356563)scale(0.1 -0.1)">
       <use xlink:href="#DejaVuSans-50"/>
      </g>
     </g>
    </g>
    <g id="xtick_5">
     <g id="line2d_5">
      <g>
       <use style="stroke:#000000;stroke-width:0.8;" x="324.450142" xlink:href="#m73be02c3da" y="239.758125"/>
      </g>
     </g>
     <g id="text_5">
      <!-- 4 -->
      <g transform="translate(321.268892 254.356563)scale(0.1 -0.1)">
       <use xlink:href="#DejaVuSans-52"/>
      </g>
     </g>
    </g>
   </g>
   <g id="matplotlib.axis_2">
    <g id="ytick_1">
     <g id="line2d_6">
      <defs>
       <path d="M 0 0 
L -3.5 0 
" id="m8390e58d30" style="stroke:#000000;stroke-width:0.8;"/>
      </defs>
      <g>
       <use style="stroke:#000000;stroke-width:0.8;" x="35.304688" xlink:href="#m8390e58d30" y="213.162831"/>
      </g>
     </g>
     <g id="text_6">
      <!-- −40 -->
      <g transform="translate(7.2 216.962049)scale(0.1 -0.1)">
       <use xlink:href="#DejaVuSans-8722"/>
       <use x="83.789062" xlink:href="#DejaVuSans-52"/>
       <use x="147.412109" xlink:href="#DejaVuSans-48"/>
      </g>
     </g>
    </g>
    <g id="ytick_2">
     <g id="line2d_7">
      <g>
       <use style="stroke:#000000;stroke-width:0.8;" x="35.304688" xlink:href="#m8390e58d30" y="180.974897"/>
      </g>
     </g>
     <g id="text_7">
      <!-- −20 -->
      <g transform="translate(7.2 184.774116)scale(0.1 -0.1)">
       <use xlink:href="#DejaVuSans-8722"/>
       <use x="83.789062" xlink:href="#DejaVuSans-50"/>
       <use x="147.412109" xlink:href="#DejaVuSans-48"/>
      </g>
     </g>
    </g>
    <g id="ytick_3">
     <g id="line2d_8">
      <g>
       <use style="stroke:#000000;stroke-width:0.8;" x="35.304688" xlink:href="#m8390e58d30" y="148.786964"/>
      </g>
     </g>
     <g id="text_8">
      <!-- 0 -->
      <g transform="translate(21.942188 152.586182)scale(0.1 -0.1)">
       <use xlink:href="#DejaVuSans-48"/>
      </g>
     </g>
    </g>
    <g id="ytick_4">
     <g id="line2d_9">
      <g>
       <use style="stroke:#000000;stroke-width:0.8;" x="35.304688" xlink:href="#m8390e58d30" y="116.59903"/>
      </g>
     </g>
     <g id="text_9">
      <!-- 20 -->
      <g transform="translate(15.579688 120.398249)scale(0.1 -0.1)">
       <use xlink:href="#DejaVuSans-50"/>
       <use x="63.623047" xlink:href="#DejaVuSans-48"/>
      </g>
     </g>
    </g>
    <g id="ytick_5">
     <g id="line2d_10">
      <g>
       <use style="stroke:#000000;stroke-width:0.8;" x="35.304688" xlink:href="#m8390e58d30" y="84.411097"/>
      </g>
     </g>
     <g id="text_10">
      <!-- 40 -->
      <g transform="translate(15.579688 88.210315)scale(0.1 -0.1)">
       <use xlink:href="#DejaVuSans-52"/>
       <use x="63.623047" xlink:href="#DejaVuSans-48"/>
      </g>
     </g>
    </g>
    <g id="ytick_6">
     <g id="line2d_11">
      <g>
       <use style="stroke:#000000;stroke-width:0.8;" x="35.304688" xlink:href="#m8390e58d30" y="52.223163"/>
      </g>
     </g>
     <g id="text_11">
      <!-- 60 -->
      <defs>
       <path d="M 33.015625 40.375 
Q 26.375 40.375 22.484375 35.828125 
Q 18.609375 31.296875 18.609375 23.390625 
Q 18.609375 15.53125 22.484375 10.953125 
Q 26.375 6.390625 33.015625 6.390625 
Q 39.65625 6.390625 43.53125 10.953125 
Q 47.40625 15.53125 47.40625 23.390625 
Q 47.40625 31.296875 43.53125 35.828125 
Q 39.65625 40.375 33.015625 40.375 
z
M 52.59375 71.296875 
L 52.59375 62.3125 
Q 48.875 64.0625 45.09375 64.984375 
Q 41.3125 65.921875 37.59375 65.921875 
Q 27.828125 65.921875 22.671875 59.328125 
Q 17.53125 52.734375 16.796875 39.40625 
Q 19.671875 43.65625 24.015625 45.921875 
Q 28.375 48.1875 33.59375 48.1875 
Q 44.578125 48.1875 50.953125 41.515625 
Q 57.328125 34.859375 57.328125 23.390625 
Q 57.328125 12.15625 50.6875 5.359375 
Q 44.046875 -1.421875 33.015625 -1.421875 
Q 20.359375 -1.421875 13.671875 8.265625 
Q 6.984375 17.96875 6.984375 36.375 
Q 6.984375 53.65625 15.1875 63.9375 
Q 23.390625 74.21875 37.203125 74.21875 
Q 40.921875 74.21875 44.703125 73.484375 
Q 48.484375 72.75 52.59375 71.296875 
z
" id="DejaVuSans-54"/>
      </defs>
      <g transform="translate(15.579688 56.022382)scale(0.1 -0.1)">
       <use xlink:href="#DejaVuSans-54"/>
       <use x="63.623047" xlink:href="#DejaVuSans-48"/>
      </g>
     </g>
    </g>
   </g>
   <g id="line2d_12">
    <path clip-path="url(#p379df58087)" d="M 50.522869 222.604221 
L 53.597249 217.786123 
L 56.67163 213.178636 
L 59.74601 208.77714 
L 62.82039 204.577014 
L 65.89477 200.573636 
L 68.96915 196.762385 
L 72.04353 193.138641 
L 75.117911 189.697782 
L 78.192291 186.435188 
L 81.266671 183.346237 
L 84.341051 180.426308 
L 87.415431 177.67078 
L 90.489811 175.075032 
L 93.564192 172.634444 
L 96.638572 170.344393 
L 99.712952 168.20026 
L 102.787332 166.197422 
L 105.861712 164.33126 
L 108.936092 162.597151 
L 112.010473 160.990476 
L 115.084853 159.506612 
L 118.159233 158.140939 
L 121.233613 156.888836 
L 124.307993 155.745681 
L 127.382373 154.706854 
L 130.456754 153.767734 
L 133.531134 152.923699 
L 136.605514 152.170129 
L 139.679894 151.502403 
L 142.754274 150.915899 
L 145.828654 150.405996 
L 148.903035 149.968074 
L 151.977415 149.597511 
L 155.051795 149.289686 
L 158.126175 149.039979 
L 161.200555 148.843768 
L 164.274935 148.696432 
L 167.349316 148.59335 
L 170.423696 148.529902 
L 173.498076 148.501465 
L 176.572456 148.50342 
L 179.646836 148.531145 
L 182.721216 148.580018 
L 185.795597 148.64542 
L 188.869977 148.722728 
L 191.944357 148.807322 
L 195.018737 148.894581 
L 198.093117 148.979884 
L 201.167497 149.05861 
L 204.241878 149.126137 
L 207.316258 149.177845 
L 210.390638 149.209112 
L 213.465018 149.215318 
L 216.539398 149.191842 
L 219.613778 149.134062 
L 222.688159 149.037357 
L 225.762539 148.897107 
L 228.836919 148.70869 
L 231.911299 148.467486 
L 234.985679 148.168873 
L 238.060059 147.80823 
L 241.13444 147.380936 
L 244.20882 146.882371 
L 247.2832 146.307912 
L 250.35758 145.65294 
L 253.43196 144.912833 
L 256.50634 144.08297 
L 259.580721 143.158729 
L 262.655101 142.135491 
L 265.729481 141.008634 
L 268.803861 139.773536 
L 271.878241 138.425577 
L 274.952621 136.960136 
L 278.027002 135.372592 
L 281.101382 133.658324 
L 284.175762 131.81271 
L 287.250142 129.83113 
L 290.324522 127.708962 
L 293.398902 125.441586 
L 296.473283 123.02438 
L 299.547663 120.452724 
L 302.622043 117.721996 
L 305.696423 114.827576 
L 308.770803 111.764841 
L 311.845183 108.529173 
L 314.919564 105.115948 
L 317.993944 101.520547 
L 321.068324 97.738348 
L 324.142704 93.76473 
L 327.217084 89.595072 
L 330.291464 85.224753 
L 333.365845 80.649152 
L 336.440225 75.863648 
L 339.514605 70.86362 
L 342.588985 65.644447 
L 345.663365 60.201508 
L 348.737745 54.530182 
L 351.812126 48.625847 
L 354.886506 42.483883 
" style="fill:none;stroke:#ff0000;stroke-linecap:square;stroke-width:2;"/>
   </g>
   <g id="line2d_13">
    <defs>
     <path d="M 0 -3 
L -0.673542 -0.927051 
L -2.85317 -0.927051 
L -1.089814 0.354102 
L -1.763356 2.427051 
L -0 1.145898 
L 1.763356 2.427051 
L 1.089814 0.354102 
L 2.85317 -0.927051 
L 0.673542 -0.927051 
z
" id="m1fd0ce1199" style="stroke:#0000ff;stroke-linejoin:bevel;"/>
    </defs>
    <g clip-path="url(#p379df58087)">
     <use style="fill:#0000ff;stroke:#0000ff;stroke-linejoin:bevel;" x="54.361801" xlink:href="#m1fd0ce1199" y="180.843383"/>
     <use style="fill:#0000ff;stroke:#0000ff;stroke-linejoin:bevel;" x="62.069627" xlink:href="#m1fd0ce1199" y="180.347317"/>
     <use style="fill:#0000ff;stroke:#0000ff;stroke-linejoin:bevel;" x="67.452328" xlink:href="#m1fd0ce1199" y="229.874489"/>
     <use style="fill:#0000ff;stroke:#0000ff;stroke-linejoin:bevel;" x="78.865532" xlink:href="#m1fd0ce1199" y="192.41111"/>
     <use style="fill:#0000ff;stroke:#0000ff;stroke-linejoin:bevel;" x="85.386544" xlink:href="#m1fd0ce1199" y="174.134514"/>
     <use style="fill:#0000ff;stroke:#0000ff;stroke-linejoin:bevel;" x="89.115544" xlink:href="#m1fd0ce1199" y="174.641392"/>
     <use style="fill:#0000ff;stroke:#0000ff;stroke-linejoin:bevel;" x="98.648624" xlink:href="#m1fd0ce1199" y="157.64998"/>
     <use style="fill:#0000ff;stroke:#0000ff;stroke-linejoin:bevel;" x="102.554075" xlink:href="#m1fd0ce1199" y="156.58347"/>
     <use style="fill:#0000ff;stroke:#0000ff;stroke-linejoin:bevel;" x="107.184033" xlink:href="#m1fd0ce1199" y="152.344195"/>
     <use style="fill:#0000ff;stroke:#0000ff;stroke-linejoin:bevel;" x="108.917804" xlink:href="#m1fd0ce1199" y="143.735581"/>
     <use style="fill:#0000ff;stroke:#0000ff;stroke-linejoin:bevel;" x="111.269211" xlink:href="#m1fd0ce1199" y="164.003944"/>
     <use style="fill:#0000ff;stroke:#0000ff;stroke-linejoin:bevel;" x="111.978742" xlink:href="#m1fd0ce1199" y="165.922656"/>
     <use style="fill:#0000ff;stroke:#0000ff;stroke-linejoin:bevel;" x="114.172195" xlink:href="#m1fd0ce1199" y="190.786943"/>
     <use style="fill:#0000ff;stroke:#0000ff;stroke-linejoin:bevel;" x="116.831688" xlink:href="#m1fd0ce1199" y="162.545149"/>
     <use style="fill:#0000ff;stroke:#0000ff;stroke-linejoin:bevel;" x="120.908535" xlink:href="#m1fd0ce1199" y="174.662092"/>
     <use style="fill:#0000ff;stroke:#0000ff;stroke-linejoin:bevel;" x="136.444826" xlink:href="#m1fd0ce1199" y="176.366439"/>
     <use style="fill:#0000ff;stroke:#0000ff;stroke-linejoin:bevel;" x="148.553856" xlink:href="#m1fd0ce1199" y="154.613374"/>
     <use style="fill:#0000ff;stroke:#0000ff;stroke-linejoin:bevel;" x="150.5756" xlink:href="#m1fd0ce1199" y="143.114703"/>
     <use style="fill:#0000ff;stroke:#0000ff;stroke-linejoin:bevel;" x="151.773814" xlink:href="#m1fd0ce1199" y="151.7315"/>
     <use style="fill:#0000ff;stroke:#0000ff;stroke-linejoin:bevel;" x="169.156234" xlink:href="#m1fd0ce1199" y="181.215696"/>
     <use style="fill:#0000ff;stroke:#0000ff;stroke-linejoin:bevel;" x="177.796276" xlink:href="#m1fd0ce1199" y="171.549941"/>
     <use style="fill:#0000ff;stroke:#0000ff;stroke-linejoin:bevel;" x="187.6719" xlink:href="#m1fd0ce1199" y="156.436934"/>
     <use style="fill:#0000ff;stroke:#0000ff;stroke-linejoin:bevel;" x="199.230745" xlink:href="#m1fd0ce1199" y="142.758187"/>
     <use style="fill:#0000ff;stroke:#0000ff;stroke-linejoin:bevel;" x="200.844364" xlink:href="#m1fd0ce1199" y="141.05557"/>
     <use style="fill:#0000ff;stroke:#0000ff;stroke-linejoin:bevel;" x="213.831395" xlink:href="#m1fd0ce1199" y="141.656792"/>
     <use style="fill:#0000ff;stroke:#0000ff;stroke-linejoin:bevel;" x="216.878298" xlink:href="#m1fd0ce1199" y="152.672624"/>
     <use style="fill:#0000ff;stroke:#0000ff;stroke-linejoin:bevel;" x="218.554149" xlink:href="#m1fd0ce1199" y="133.952694"/>
     <use style="fill:#0000ff;stroke:#0000ff;stroke-linejoin:bevel;" x="220.420063" xlink:href="#m1fd0ce1199" y="147.851932"/>
     <use style="fill:#0000ff;stroke:#0000ff;stroke-linejoin:bevel;" x="225.639623" xlink:href="#m1fd0ce1199" y="136.930982"/>
     <use style="fill:#0000ff;stroke:#0000ff;stroke-linejoin:bevel;" x="228.412217" xlink:href="#m1fd0ce1199" y="137.90104"/>
     <use style="fill:#0000ff;stroke:#0000ff;stroke-linejoin:bevel;" x="234.916396" xlink:href="#m1fd0ce1199" y="144.633651"/>
     <use style="fill:#0000ff;stroke:#0000ff;stroke-linejoin:bevel;" x="237.704223" xlink:href="#m1fd0ce1199" y="149.807582"/>
     <use style="fill:#0000ff;stroke:#0000ff;stroke-linejoin:bevel;" x="243.040987" xlink:href="#m1fd0ce1199" y="141.55479"/>
     <use style="fill:#0000ff;stroke:#0000ff;stroke-linejoin:bevel;" x="251.170884" xlink:href="#m1fd0ce1199" y="150.219059"/>
     <use style="fill:#0000ff;stroke:#0000ff;stroke-linejoin:bevel;" x="258.850244" xlink:href="#m1fd0ce1199" y="128.487825"/>
     <use style="fill:#0000ff;stroke:#0000ff;stroke-linejoin:bevel;" x="259.026752" xlink:href="#m1fd0ce1199" y="163.599911"/>
     <use style="fill:#0000ff;stroke:#0000ff;stroke-linejoin:bevel;" x="260.173393" xlink:href="#m1fd0ce1199" y="165.569969"/>
     <use style="fill:#0000ff;stroke:#0000ff;stroke-linejoin:bevel;" x="279.247051" xlink:href="#m1fd0ce1199" y="135.56183"/>
     <use style="fill:#0000ff;stroke:#0000ff;stroke-linejoin:bevel;" x="284.499482" xlink:href="#m1fd0ce1199" y="154.136256"/>
     <use style="fill:#0000ff;stroke:#0000ff;stroke-linejoin:bevel;" x="292.804402" xlink:href="#m1fd0ce1199" y="113.8849"/>
     <use style="fill:#0000ff;stroke:#0000ff;stroke-linejoin:bevel;" x="307.715484" xlink:href="#m1fd0ce1199" y="111.823885"/>
     <use style="fill:#0000ff;stroke:#0000ff;stroke-linejoin:bevel;" x="308.424466" xlink:href="#m1fd0ce1199" y="113.428389"/>
     <use style="fill:#0000ff;stroke:#0000ff;stroke-linejoin:bevel;" x="309.300258" xlink:href="#m1fd0ce1199" y="125.236636"/>
     <use style="fill:#0000ff;stroke:#0000ff;stroke-linejoin:bevel;" x="309.727723" xlink:href="#m1fd0ce1199" y="103.901889"/>
     <use style="fill:#0000ff;stroke:#0000ff;stroke-linejoin:bevel;" x="316.585344" xlink:href="#m1fd0ce1199" y="109.452057"/>
     <use style="fill:#0000ff;stroke:#0000ff;stroke-linejoin:bevel;" x="332.021564" xlink:href="#m1fd0ce1199" y="33.609835"/>
     <use style="fill:#0000ff;stroke:#0000ff;stroke-linejoin:bevel;" x="333.045815" xlink:href="#m1fd0ce1199" y="77.992817"/>
     <use style="fill:#0000ff;stroke:#0000ff;stroke-linejoin:bevel;" x="334.264125" xlink:href="#m1fd0ce1199" y="107.620242"/>
     <use style="fill:#0000ff;stroke:#0000ff;stroke-linejoin:bevel;" x="339.74012" xlink:href="#m1fd0ce1199" y="59.72514"/>
     <use style="fill:#0000ff;stroke:#0000ff;stroke-linejoin:bevel;" x="352.253295" xlink:href="#m1fd0ce1199" y="32.201761"/>
    </g>
   </g>
   <g id="patch_3">
    <path d="M 35.304688 239.758125 
L 35.304688 22.318125 
" style="fill:none;stroke:#000000;stroke-linecap:square;stroke-linejoin:miter;stroke-width:0.8;"/>
   </g>
   <g id="patch_4">
    <path d="M 370.104688 239.758125 
L 370.104688 22.318125 
" style="fill:none;stroke:#000000;stroke-linecap:square;stroke-linejoin:miter;stroke-width:0.8;"/>
   </g>
   <g id="patch_5">
    <path d="M 35.304688 239.758125 
L 370.104688 239.758125 
" style="fill:none;stroke:#000000;stroke-linecap:square;stroke-linejoin:miter;stroke-width:0.8;"/>
   </g>
   <g id="patch_6">
    <path d="M 35.304688 22.318125 
L 370.104688 22.318125 
" style="fill:none;stroke:#000000;stroke-linecap:square;stroke-linejoin:miter;stroke-width:0.8;"/>
   </g>
   <g id="text_12">
    <!-- 0.46x^3 +0.41x^2 -0.42x -0.19 -->
    <defs>
     <path d="M 10.6875 12.40625 
L 21 12.40625 
L 21 0 
L 10.6875 0 
z
" id="DejaVuSans-46"/>
     <path d="M 54.890625 54.6875 
L 35.109375 28.078125 
L 55.90625 0 
L 45.3125 0 
L 29.390625 21.484375 
L 13.484375 0 
L 2.875 0 
L 24.125 28.609375 
L 4.6875 54.6875 
L 15.28125 54.6875 
L 29.78125 35.203125 
L 44.28125 54.6875 
z
" id="DejaVuSans-120"/>
     <path d="M 46.6875 72.90625 
L 73.1875 45.703125 
L 63.375 45.703125 
L 41.890625 64.984375 
L 20.40625 45.703125 
L 10.59375 45.703125 
L 37.109375 72.90625 
z
" id="DejaVuSans-94"/>
     <path d="M 40.578125 39.3125 
Q 47.65625 37.796875 51.625 33 
Q 55.609375 28.21875 55.609375 21.1875 
Q 55.609375 10.40625 48.1875 4.484375 
Q 40.765625 -1.421875 27.09375 -1.421875 
Q 22.515625 -1.421875 17.65625 -0.515625 
Q 12.796875 0.390625 7.625 2.203125 
L 7.625 11.71875 
Q 11.71875 9.328125 16.59375 8.109375 
Q 21.484375 6.890625 26.8125 6.890625 
Q 36.078125 6.890625 40.9375 10.546875 
Q 45.796875 14.203125 45.796875 21.1875 
Q 45.796875 27.640625 41.28125 31.265625 
Q 36.765625 34.90625 28.71875 34.90625 
L 20.21875 34.90625 
L 20.21875 43.015625 
L 29.109375 43.015625 
Q 36.375 43.015625 40.234375 45.921875 
Q 44.09375 48.828125 44.09375 54.296875 
Q 44.09375 59.90625 40.109375 62.90625 
Q 36.140625 65.921875 28.71875 65.921875 
Q 24.65625 65.921875 20.015625 65.03125 
Q 15.375 64.15625 9.8125 62.3125 
L 9.8125 71.09375 
Q 15.4375 72.65625 20.34375 73.4375 
Q 25.25 74.21875 29.59375 74.21875 
Q 40.828125 74.21875 47.359375 69.109375 
Q 53.90625 64.015625 53.90625 55.328125 
Q 53.90625 49.265625 50.4375 45.09375 
Q 46.96875 40.921875 40.578125 39.3125 
z
" id="DejaVuSans-51"/>
     <path id="DejaVuSans-32"/>
     <path d="M 46 62.703125 
L 46 35.5 
L 73.1875 35.5 
L 73.1875 27.203125 
L 46 27.203125 
L 46 0 
L 37.796875 0 
L 37.796875 27.203125 
L 10.59375 27.203125 
L 10.59375 35.5 
L 37.796875 35.5 
L 37.796875 62.703125 
z
" id="DejaVuSans-43"/>
     <path d="M 12.40625 8.296875 
L 28.515625 8.296875 
L 28.515625 63.921875 
L 10.984375 60.40625 
L 10.984375 69.390625 
L 28.421875 72.90625 
L 38.28125 72.90625 
L 38.28125 8.296875 
L 54.390625 8.296875 
L 54.390625 0 
L 12.40625 0 
z
" id="DejaVuSans-49"/>
     <path d="M 4.890625 31.390625 
L 31.203125 31.390625 
L 31.203125 23.390625 
L 4.890625 23.390625 
z
" id="DejaVuSans-45"/>
     <path d="M 10.984375 1.515625 
L 10.984375 10.5 
Q 14.703125 8.734375 18.5 7.8125 
Q 22.3125 6.890625 25.984375 6.890625 
Q 35.75 6.890625 40.890625 13.453125 
Q 46.046875 20.015625 46.78125 33.40625 
Q 43.953125 29.203125 39.59375 26.953125 
Q 35.25 24.703125 29.984375 24.703125 
Q 19.046875 24.703125 12.671875 31.3125 
Q 6.296875 37.9375 6.296875 49.421875 
Q 6.296875 60.640625 12.9375 67.421875 
Q 19.578125 74.21875 30.609375 74.21875 
Q 43.265625 74.21875 49.921875 64.515625 
Q 56.59375 54.828125 56.59375 36.375 
Q 56.59375 19.140625 48.40625 8.859375 
Q 40.234375 -1.421875 26.421875 -1.421875 
Q 22.703125 -1.421875 18.890625 -0.6875 
Q 15.09375 0.046875 10.984375 1.515625 
z
M 30.609375 32.421875 
Q 37.25 32.421875 41.125 36.953125 
Q 45.015625 41.5 45.015625 49.421875 
Q 45.015625 57.28125 41.125 61.84375 
Q 37.25 66.40625 30.609375 66.40625 
Q 23.96875 66.40625 20.09375 61.84375 
Q 16.21875 57.28125 16.21875 49.421875 
Q 16.21875 41.5 20.09375 36.953125 
Q 23.96875 32.421875 30.609375 32.421875 
z
" id="DejaVuSans-57"/>
    </defs>
    <g transform="translate(105.845 16.318125)scale(0.12 -0.12)">
     <use xlink:href="#DejaVuSans-48"/>
     <use x="63.623047" xlink:href="#DejaVuSans-46"/>
     <use x="95.410156" xlink:href="#DejaVuSans-52"/>
     <use x="159.033203" xlink:href="#DejaVuSans-54"/>
     <use x="222.65625" xlink:href="#DejaVuSans-120"/>
     <use x="281.835938" xlink:href="#DejaVuSans-94"/>
     <use x="365.625" xlink:href="#DejaVuSans-51"/>
     <use x="429.248047" xlink:href="#DejaVuSans-32"/>
     <use x="461.035156" xlink:href="#DejaVuSans-43"/>
     <use x="544.824219" xlink:href="#DejaVuSans-48"/>
     <use x="608.447266" xlink:href="#DejaVuSans-46"/>
     <use x="640.234375" xlink:href="#DejaVuSans-52"/>
     <use x="703.857422" xlink:href="#DejaVuSans-49"/>
     <use x="767.480469" xlink:href="#DejaVuSans-120"/>
     <use x="826.660156" xlink:href="#DejaVuSans-94"/>
     <use x="910.449219" xlink:href="#DejaVuSans-50"/>
     <use x="974.072266" xlink:href="#DejaVuSans-32"/>
     <use x="1005.859375" xlink:href="#DejaVuSans-45"/>
     <use x="1041.943359" xlink:href="#DejaVuSans-48"/>
     <use x="1105.566406" xlink:href="#DejaVuSans-46"/>
     <use x="1137.353516" xlink:href="#DejaVuSans-52"/>
     <use x="1200.976562" xlink:href="#DejaVuSans-50"/>
     <use x="1264.599609" xlink:href="#DejaVuSans-120"/>
     <use x="1323.779297" xlink:href="#DejaVuSans-32"/>
     <use x="1355.566406" xlink:href="#DejaVuSans-45"/>
     <use x="1391.650391" xlink:href="#DejaVuSans-48"/>
     <use x="1455.273438" xlink:href="#DejaVuSans-46"/>
     <use x="1487.060547" xlink:href="#DejaVuSans-49"/>
     <use x="1550.683594" xlink:href="#DejaVuSans-57"/>
    </g>
   </g>
  </g>
 </g>
 <defs>
  <clipPath id="p379df58087">
   <rect height="217.44" width="334.8" x="35.304688" y="22.318125"/>
  </clipPath>
 </defs>
</svg>
