<?xml version="1.0" encoding="utf-8" standalone="no"?>
<!DOCTYPE svg PUBLIC "-//W3C//DTD SVG 1.1//EN"
  "http://www.w3.org/Graphics/SVG/1.1/DTD/svg11.dtd">
<!-- Created with matplotlib (https://matplotlib.org/) -->
<svg height="263.63625pt" version="1.1" viewBox="0 0 395.141562 263.63625" width="395.141562pt" xmlns="http://www.w3.org/2000/svg" xmlns:xlink="http://www.w3.org/1999/xlink">
 <defs>
  <style type="text/css">
*{stroke-linecap:butt;stroke-linejoin:round;}
  </style>
 </defs>
 <g id="figure_1">
  <g id="patch_1">
   <path d="M 0 263.63625 
L 395.141562 263.63625 
L 395.141562 0 
L 0 0 
z
" style="fill:#ffffff;"/>
  </g>
  <g id="axes_1">
   <g id="patch_2">
    <path d="M 35.304688 239.758125 
L 370.104688 239.758125 
L 370.104688 22.318125 
L 35.304688 22.318125 
z
" style="fill:#ffffff;"/>
   </g>
   <g id="matplotlib.axis_1">
    <g id="xtick_1">
     <g id="line2d_1">
      <defs>
       <path d="M 0 0 
L 0 3.5 
" id="m2077535864" style="stroke:#000000;stroke-width:0.8;"/>
      </defs>
      <g>
       <use style="stroke:#000000;stroke-width:0.8;" x="80.959233" xlink:href="#m2077535864" y="239.758125"/>
      </g>
     </g>
     <g id="text_1">
      <!-- −4 -->
      <defs>
       <path d="M 10.59375 35.5 
L 73.1875 35.5 
L 73.1875 27.203125 
L 10.59375 27.203125 
z
" id="DejaVuSans-8722"/>
       <path d="M 37.796875 64.3125 
L 12.890625 25.390625 
L 37.796875 25.390625 
z
M 35.203125 72.90625 
L 47.609375 72.90625 
L 47.609375 25.390625 
L 58.015625 25.390625 
L 58.015625 17.1875 
L 47.609375 17.1875 
L 47.609375 0 
L 37.796875 0 
L 37.796875 17.1875 
L 4.890625 17.1875 
L 4.890625 26.703125 
z
" id="DejaVuSans-52"/>
      </defs>
      <g transform="translate(73.588139 254.356563)scale(0.1 -0.1)">
       <use xlink:href="#DejaVuSans-8722"/>
       <use x="83.789062" xlink:href="#DejaVuSans-52"/>
      </g>
     </g>
    </g>
    <g id="xtick_2">
     <g id="line2d_2">
      <g>
       <use style="stroke:#000000;stroke-width:0.8;" x="141.83196" xlink:href="#m2077535864" y="239.758125"/>
      </g>
     </g>
     <g id="text_2">
      <!-- −2 -->
      <defs>
       <path d="M 19.1875 8.296875 
L 53.609375 8.296875 
L 53.609375 0 
L 7.328125 0 
L 7.328125 8.296875 
Q 12.9375 14.109375 22.625 23.890625 
Q 32.328125 33.6875 34.8125 36.53125 
Q 39.546875 41.84375 41.421875 45.53125 
Q 43.3125 49.21875 43.3125 52.78125 
Q 43.3125 58.59375 39.234375 62.25 
Q 35.15625 65.921875 28.609375 65.921875 
Q 23.96875 65.921875 18.8125 64.3125 
Q 13.671875 62.703125 7.8125 59.421875 
L 7.8125 69.390625 
Q 13.765625 71.78125 18.9375 73 
Q 24.125 74.21875 28.421875 74.21875 
Q 39.75 74.21875 46.484375 68.546875 
Q 53.21875 62.890625 53.21875 53.421875 
Q 53.21875 48.921875 51.53125 44.890625 
Q 49.859375 40.875 45.40625 35.40625 
Q 44.1875 33.984375 37.640625 27.21875 
Q 31.109375 20.453125 19.1875 8.296875 
z
" id="DejaVuSans-50"/>
      </defs>
      <g transform="translate(134.460866 254.356563)scale(0.1 -0.1)">
       <use xlink:href="#DejaVuSans-8722"/>
       <use x="83.789062" xlink:href="#DejaVuSans-50"/>
      </g>
     </g>
    </g>
    <g id="xtick_3">
     <g id="line2d_3">
      <g>
       <use style="stroke:#000000;stroke-width:0.8;" x="202.704688" xlink:href="#m2077535864" y="239.758125"/>
      </g>
     </g>
     <g id="text_3">
      <!-- 0 -->
      <defs>
       <path d="M 31.78125 66.40625 
Q 24.171875 66.40625 20.328125 58.90625 
Q 16.5 51.421875 16.5 36.375 
Q 16.5 21.390625 20.328125 13.890625 
Q 24.171875 6.390625 31.78125 6.390625 
Q 39.453125 6.390625 43.28125 13.890625 
Q 47.125 21.390625 47.125 36.375 
Q 47.125 51.421875 43.28125 58.90625 
Q 39.453125 66.40625 31.78125 66.40625 
z
M 31.78125 74.21875 
Q 44.046875 74.21875 50.515625 64.515625 
Q 56.984375 54.828125 56.984375 36.375 
Q 56.984375 17.96875 50.515625 8.265625 
Q 44.046875 -1.421875 31.78125 -1.421875 
Q 19.53125 -1.421875 13.0625 8.265625 
Q 6.59375 17.96875 6.59375 36.375 
Q 6.59375 54.828125 13.0625 64.515625 
Q 19.53125 74.21875 31.78125 74.21875 
z
" id="DejaVuSans-48"/>
      </defs>
      <g transform="translate(199.523438 254.356563)scale(0.1 -0.1)">
       <use xlink:href="#DejaVuSans-48"/>
      </g>
     </g>
    </g>
    <g id="xtick_4">
     <g id="line2d_4">
      <g>
       <use style="stroke:#000000;stroke-width:0.8;" x="263.577415" xlink:href="#m2077535864" y="239.758125"/>
      </g>
     </g>
     <g id="text_4">
      <!-- 2 -->
      <g transform="translate(260.396165 254.356563)scale(0.1 -0.1)">
       <use xlink:href="#DejaVuSans-50"/>
      </g>
     </g>
    </g>
    <g id="xtick_5">
     <g id="line2d_5">
      <g>
       <use style="stroke:#000000;stroke-width:0.8;" x="324.450142" xlink:href="#m2077535864" y="239.758125"/>
      </g>
     </g>
     <g id="text_5">
      <!-- 4 -->
      <g transform="translate(321.268892 254.356563)scale(0.1 -0.1)">
       <use xlink:href="#DejaVuSans-52"/>
      </g>
     </g>
    </g>
   </g>
   <g id="matplotlib.axis_2">
    <g id="ytick_1">
     <g id="line2d_6">
      <defs>
       <path d="M 0 0 
L -3.5 0 
" id="m06112555fa" style="stroke:#000000;stroke-width:0.8;"/>
      </defs>
      <g>
       <use style="stroke:#000000;stroke-width:0.8;" x="35.304688" xlink:href="#m06112555fa" y="228.546412"/>
      </g>
     </g>
     <g id="text_6">
      <!-- −40 -->
      <g transform="translate(7.2 232.345631)scale(0.1 -0.1)">
       <use xlink:href="#DejaVuSans-8722"/>
       <use x="83.789062" xlink:href="#DejaVuSans-52"/>
       <use x="147.412109" xlink:href="#DejaVuSans-48"/>
      </g>
     </g>
    </g>
    <g id="ytick_2">
     <g id="line2d_7">
      <g>
       <use style="stroke:#000000;stroke-width:0.8;" x="35.304688" xlink:href="#m06112555fa" y="184.343485"/>
      </g>
     </g>
     <g id="text_7">
      <!-- −20 -->
      <g transform="translate(7.2 188.142704)scale(0.1 -0.1)">
       <use xlink:href="#DejaVuSans-8722"/>
       <use x="83.789062" xlink:href="#DejaVuSans-50"/>
       <use x="147.412109" xlink:href="#DejaVuSans-48"/>
      </g>
     </g>
    </g>
    <g id="ytick_3">
     <g id="line2d_8">
      <g>
       <use style="stroke:#000000;stroke-width:0.8;" x="35.304688" xlink:href="#m06112555fa" y="140.140558"/>
      </g>
     </g>
     <g id="text_8">
      <!-- 0 -->
      <g transform="translate(21.942188 143.939777)scale(0.1 -0.1)">
       <use xlink:href="#DejaVuSans-48"/>
      </g>
     </g>
    </g>
    <g id="ytick_4">
     <g id="line2d_9">
      <g>
       <use style="stroke:#000000;stroke-width:0.8;" x="35.304688" xlink:href="#m06112555fa" y="95.937631"/>
      </g>
     </g>
     <g id="text_9">
      <!-- 20 -->
      <g transform="translate(15.579688 99.73685)scale(0.1 -0.1)">
       <use xlink:href="#DejaVuSans-50"/>
       <use x="63.623047" xlink:href="#DejaVuSans-48"/>
      </g>
     </g>
    </g>
    <g id="ytick_5">
     <g id="line2d_10">
      <g>
       <use style="stroke:#000000;stroke-width:0.8;" x="35.304688" xlink:href="#m06112555fa" y="51.734704"/>
      </g>
     </g>
     <g id="text_10">
      <!-- 40 -->
      <g transform="translate(15.579688 55.533923)scale(0.1 -0.1)">
       <use xlink:href="#DejaVuSans-52"/>
       <use x="63.623047" xlink:href="#DejaVuSans-48"/>
      </g>
     </g>
    </g>
   </g>
   <g id="line2d_11">
    <path clip-path="url(#pc4acf42758)" d="M 50.522869 58.607959 
L 53.597249 63.438787 
L 56.67163 68.073557 
L 59.74601 72.516332 
L 62.82039 76.771174 
L 65.89477 80.842145 
L 68.96915 84.733307 
L 72.04353 88.448725 
L 75.117911 91.992459 
L 78.192291 95.368573 
L 81.266671 98.581128 
L 84.341051 101.634188 
L 87.415431 104.531815 
L 90.489811 107.278071 
L 93.564192 109.877019 
L 96.638572 112.332721 
L 99.712952 114.64924 
L 102.787332 116.830638 
L 105.861712 118.880979 
L 108.936092 120.804323 
L 112.010473 122.604734 
L 115.084853 124.286275 
L 118.159233 125.853008 
L 121.233613 127.308994 
L 124.307993 128.658298 
L 127.382373 129.90498 
L 130.456754 131.053105 
L 133.531134 132.106734 
L 136.605514 133.069929 
L 139.679894 133.946754 
L 142.754274 134.74127 
L 145.828654 135.457541 
L 148.903035 136.099628 
L 151.977415 136.671595 
L 155.051795 137.177503 
L 158.126175 137.621415 
L 161.200555 138.007394 
L 164.274935 138.339503 
L 167.349316 138.621803 
L 170.423696 138.858357 
L 173.498076 139.053227 
L 176.572456 139.210477 
L 179.646836 139.334169 
L 182.721216 139.428364 
L 185.795597 139.497126 
L 188.869977 139.544518 
L 191.944357 139.5746 
L 195.018737 139.591437 
L 198.093117 139.599091 
L 201.167497 139.601624 
L 204.241878 139.603098 
L 207.316258 139.607576 
L 210.390638 139.619121 
L 213.465018 139.641795 
L 216.539398 139.67966 
L 219.613778 139.736779 
L 222.688159 139.817215 
L 225.762539 139.92503 
L 228.836919 140.064286 
L 231.911299 140.239047 
L 234.985679 140.453374 
L 238.060059 140.711329 
L 241.13444 141.016977 
L 244.20882 141.374378 
L 247.2832 141.787596 
L 250.35758 142.260692 
L 253.43196 142.79773 
L 256.50634 143.402772 
L 259.580721 144.079881 
L 262.655101 144.833118 
L 265.729481 145.666547 
L 268.803861 146.584229 
L 271.878241 147.590228 
L 274.952621 148.688606 
L 278.027002 149.883426 
L 281.101382 151.178749 
L 284.175762 152.578638 
L 287.250142 154.087157 
L 290.324522 155.708366 
L 293.398902 157.44633 
L 296.473283 159.30511 
L 299.547663 161.288768 
L 302.622043 163.401368 
L 305.696423 165.646972 
L 308.770803 168.029642 
L 311.845183 170.553441 
L 314.919564 173.222431 
L 317.993944 176.040675 
L 321.068324 179.012235 
L 324.142704 182.141174 
L 327.217084 185.431554 
L 330.291464 188.887438 
L 333.365845 192.512888 
L 336.440225 196.311966 
L 339.514605 200.288736 
L 342.588985 204.44726 
L 345.663365 208.7916 
L 348.737745 213.325819 
L 351.812126 218.053978 
L 354.886506 222.980142 
" style="fill:none;stroke:#ff0000;stroke-linecap:square;stroke-width:2;"/>
   </g>
   <g id="line2d_12">
    <defs>
     <path d="M 0 -3 
L -0.673542 -0.927051 
L -2.85317 -0.927051 
L -1.089814 0.354102 
L -1.763356 2.427051 
L -0 1.145898 
L 1.763356 2.427051 
L 1.089814 0.354102 
L 2.85317 -0.927051 
L 0.673542 -0.927051 
z
" id="m20b2f57e35" style="stroke:#0000ff;stroke-linejoin:bevel;"/>
    </defs>
    <g clip-path="url(#pc4acf42758)">
     <use style="fill:#0000ff;stroke:#0000ff;stroke-linejoin:bevel;" x="54.538916" xlink:href="#m20b2f57e35" y="32.201761"/>
     <use style="fill:#0000ff;stroke:#0000ff;stroke-linejoin:bevel;" x="60.830133" xlink:href="#m20b2f57e35" y="83.250342"/>
     <use style="fill:#0000ff;stroke:#0000ff;stroke-linejoin:bevel;" x="62.007544" xlink:href="#m20b2f57e35" y="44.814155"/>
     <use style="fill:#0000ff;stroke:#0000ff;stroke-linejoin:bevel;" x="63.169252" xlink:href="#m20b2f57e35" y="81.156535"/>
     <use style="fill:#0000ff;stroke:#0000ff;stroke-linejoin:bevel;" x="73.020377" xlink:href="#m20b2f57e35" y="92.551377"/>
     <use style="fill:#0000ff;stroke:#0000ff;stroke-linejoin:bevel;" x="88.226345" xlink:href="#m20b2f57e35" y="106.065544"/>
     <use style="fill:#0000ff;stroke:#0000ff;stroke-linejoin:bevel;" x="90.619115" xlink:href="#m20b2f57e35" y="132.769137"/>
     <use style="fill:#0000ff;stroke:#0000ff;stroke-linejoin:bevel;" x="90.921431" xlink:href="#m20b2f57e35" y="80.841708"/>
     <use style="fill:#0000ff;stroke:#0000ff;stroke-linejoin:bevel;" x="96.465786" xlink:href="#m20b2f57e35" y="150.534692"/>
     <use style="fill:#0000ff;stroke:#0000ff;stroke-linejoin:bevel;" x="121.661643" xlink:href="#m20b2f57e35" y="160.805062"/>
     <use style="fill:#0000ff;stroke:#0000ff;stroke-linejoin:bevel;" x="127.85885" xlink:href="#m20b2f57e35" y="158.787749"/>
     <use style="fill:#0000ff;stroke:#0000ff;stroke-linejoin:bevel;" x="131.476295" xlink:href="#m20b2f57e35" y="159.357222"/>
     <use style="fill:#0000ff;stroke:#0000ff;stroke-linejoin:bevel;" x="132.766338" xlink:href="#m20b2f57e35" y="110.536933"/>
     <use style="fill:#0000ff;stroke:#0000ff;stroke-linejoin:bevel;" x="134.991476" xlink:href="#m20b2f57e35" y="131.901386"/>
     <use style="fill:#0000ff;stroke:#0000ff;stroke-linejoin:bevel;" x="143.436474" xlink:href="#m20b2f57e35" y="160.225498"/>
     <use style="fill:#0000ff;stroke:#0000ff;stroke-linejoin:bevel;" x="157.635496" xlink:href="#m20b2f57e35" y="124.19155"/>
     <use style="fill:#0000ff;stroke:#0000ff;stroke-linejoin:bevel;" x="180.29105" xlink:href="#m20b2f57e35" y="122.679796"/>
     <use style="fill:#0000ff;stroke:#0000ff;stroke-linejoin:bevel;" x="184.756308" xlink:href="#m20b2f57e35" y="162.061542"/>
     <use style="fill:#0000ff;stroke:#0000ff;stroke-linejoin:bevel;" x="191.025491" xlink:href="#m20b2f57e35" y="153.664528"/>
     <use style="fill:#0000ff;stroke:#0000ff;stroke-linejoin:bevel;" x="192.105929" xlink:href="#m20b2f57e35" y="117.701789"/>
     <use style="fill:#0000ff;stroke:#0000ff;stroke-linejoin:bevel;" x="199.047639" xlink:href="#m20b2f57e35" y="156.792188"/>
     <use style="fill:#0000ff;stroke:#0000ff;stroke-linejoin:bevel;" x="200.855928" xlink:href="#m20b2f57e35" y="117.372486"/>
     <use style="fill:#0000ff;stroke:#0000ff;stroke-linejoin:bevel;" x="208.994801" xlink:href="#m20b2f57e35" y="131.843917"/>
     <use style="fill:#0000ff;stroke:#0000ff;stroke-linejoin:bevel;" x="213.513526" xlink:href="#m20b2f57e35" y="137.077286"/>
     <use style="fill:#0000ff;stroke:#0000ff;stroke-linejoin:bevel;" x="217.858875" xlink:href="#m20b2f57e35" y="134.964376"/>
     <use style="fill:#0000ff;stroke:#0000ff;stroke-linejoin:bevel;" x="220.278851" xlink:href="#m20b2f57e35" y="135.247007"/>
     <use style="fill:#0000ff;stroke:#0000ff;stroke-linejoin:bevel;" x="222.72346" xlink:href="#m20b2f57e35" y="158.449993"/>
     <use style="fill:#0000ff;stroke:#0000ff;stroke-linejoin:bevel;" x="228.03439" xlink:href="#m20b2f57e35" y="150.798482"/>
     <use style="fill:#0000ff;stroke:#0000ff;stroke-linejoin:bevel;" x="243.591537" xlink:href="#m20b2f57e35" y="156.532874"/>
     <use style="fill:#0000ff;stroke:#0000ff;stroke-linejoin:bevel;" x="245.368866" xlink:href="#m20b2f57e35" y="159.648269"/>
     <use style="fill:#0000ff;stroke:#0000ff;stroke-linejoin:bevel;" x="246.344582" xlink:href="#m20b2f57e35" y="129.153832"/>
     <use style="fill:#0000ff;stroke:#0000ff;stroke-linejoin:bevel;" x="253.799156" xlink:href="#m20b2f57e35" y="128.525069"/>
     <use style="fill:#0000ff;stroke:#0000ff;stroke-linejoin:bevel;" x="264.456906" xlink:href="#m20b2f57e35" y="155.416837"/>
     <use style="fill:#0000ff;stroke:#0000ff;stroke-linejoin:bevel;" x="266.519113" xlink:href="#m20b2f57e35" y="133.449367"/>
     <use style="fill:#0000ff;stroke:#0000ff;stroke-linejoin:bevel;" x="266.544977" xlink:href="#m20b2f57e35" y="156.851528"/>
     <use style="fill:#0000ff;stroke:#0000ff;stroke-linejoin:bevel;" x="269.320488" xlink:href="#m20b2f57e35" y="174.929853"/>
     <use style="fill:#0000ff;stroke:#0000ff;stroke-linejoin:bevel;" x="273.859417" xlink:href="#m20b2f57e35" y="159.596593"/>
     <use style="fill:#0000ff;stroke:#0000ff;stroke-linejoin:bevel;" x="275.905706" xlink:href="#m20b2f57e35" y="145.357929"/>
     <use style="fill:#0000ff;stroke:#0000ff;stroke-linejoin:bevel;" x="281.013651" xlink:href="#m20b2f57e35" y="144.984629"/>
     <use style="fill:#0000ff;stroke:#0000ff;stroke-linejoin:bevel;" x="291.161102" xlink:href="#m20b2f57e35" y="125.457163"/>
     <use style="fill:#0000ff;stroke:#0000ff;stroke-linejoin:bevel;" x="296.168994" xlink:href="#m20b2f57e35" y="174.677682"/>
     <use style="fill:#0000ff;stroke:#0000ff;stroke-linejoin:bevel;" x="302.548191" xlink:href="#m20b2f57e35" y="200.422487"/>
     <use style="fill:#0000ff;stroke:#0000ff;stroke-linejoin:bevel;" x="302.993914" xlink:href="#m20b2f57e35" y="181.899981"/>
     <use style="fill:#0000ff;stroke:#0000ff;stroke-linejoin:bevel;" x="303.943803" xlink:href="#m20b2f57e35" y="160.707287"/>
     <use style="fill:#0000ff;stroke:#0000ff;stroke-linejoin:bevel;" x="306.377583" xlink:href="#m20b2f57e35" y="212.625876"/>
     <use style="fill:#0000ff;stroke:#0000ff;stroke-linejoin:bevel;" x="315.058811" xlink:href="#m20b2f57e35" y="193.197712"/>
     <use style="fill:#0000ff;stroke:#0000ff;stroke-linejoin:bevel;" x="316.066145" xlink:href="#m20b2f57e35" y="163.682023"/>
     <use style="fill:#0000ff;stroke:#0000ff;stroke-linejoin:bevel;" x="318.868703" xlink:href="#m20b2f57e35" y="148.846658"/>
     <use style="fill:#0000ff;stroke:#0000ff;stroke-linejoin:bevel;" x="319.158961" xlink:href="#m20b2f57e35" y="169.132022"/>
     <use style="fill:#0000ff;stroke:#0000ff;stroke-linejoin:bevel;" x="350.709864" xlink:href="#m20b2f57e35" y="205.03341"/>
    </g>
   </g>
   <g id="line2d_13">
    <path clip-path="url(#pc4acf42758)" d="M 50.522869 49.711793 
L 53.597249 55.664282 
L 56.67163 61.373512 
L 59.74601 66.844398 
L 62.82039 72.081855 
L 65.89477 77.090798 
L 68.96915 81.876141 
L 72.04353 86.442801 
L 75.117911 90.795691 
L 78.192291 94.939728 
L 81.266671 98.879825 
L 84.341051 102.620899 
L 87.415431 106.167864 
L 90.489811 109.525634 
L 93.564192 112.699126 
L 96.638572 115.693254 
L 99.712952 118.512933 
L 102.787332 121.163079 
L 105.861712 123.648605 
L 108.936092 125.974428 
L 112.010473 128.145462 
L 115.084853 130.166622 
L 118.159233 132.042824 
L 121.233613 133.778982 
L 124.307993 135.380011 
L 127.382373 136.850826 
L 130.456754 138.196343 
L 133.531134 139.421477 
L 136.605514 140.531141 
L 139.679894 141.530253 
L 142.754274 142.423725 
L 145.828654 143.216475 
L 148.903035 143.913415 
L 151.977415 144.519463 
L 155.051795 145.039532 
L 158.126175 145.478537 
L 161.200555 145.841394 
L 164.274935 146.133018 
L 167.349316 146.358324 
L 170.423696 146.522226 
L 173.498076 146.62964 
L 176.572456 146.68548 
L 179.646836 146.694663 
L 182.721216 146.662102 
L 185.795597 146.592713 
L 188.869977 146.491411 
L 191.944357 146.36311 
L 195.018737 146.212727 
L 198.093117 146.045175 
L 201.167497 145.865371 
L 204.241878 145.678228 
L 207.316258 145.488662 
L 210.390638 145.301588 
L 213.465018 145.121922 
L 216.539398 144.954577 
L 219.613778 144.80447 
L 222.688159 144.676514 
L 225.762539 144.575626 
L 228.836919 144.506719 
L 231.911299 144.47471 
L 234.985679 144.484514 
L 238.060059 144.541044 
L 241.13444 144.649216 
L 244.20882 144.813946 
L 247.2832 145.040148 
L 250.35758 145.332738 
L 253.43196 145.696629 
L 256.50634 146.136738 
L 259.580721 146.65798 
L 262.655101 147.265269 
L 265.729481 147.96352 
L 268.803861 148.757649 
L 271.878241 149.65257 
L 274.952621 150.653198 
L 278.027002 151.76445 
L 281.101382 152.991238 
L 284.175762 154.33848 
L 287.250142 155.811088 
L 290.324522 157.41398 
L 293.398902 159.152069 
L 296.473283 161.030271 
L 299.547663 163.0535 
L 302.622043 165.226672 
L 305.696423 167.554702 
L 308.770803 170.042505 
L 311.845183 172.694995 
L 314.919564 175.517088 
L 317.993944 178.513699 
L 321.068324 181.689743 
L 324.142704 185.050134 
L 327.217084 188.599789 
L 330.291464 192.343621 
L 333.365845 196.286547 
L 336.440225 200.43348 
L 339.514605 204.789336 
L 342.588985 209.359031 
L 345.663365 214.147478 
L 348.737745 219.159594 
L 351.812126 224.400292 
L 354.886506 229.874489 
" style="fill:none;stroke:#008000;stroke-linecap:square;stroke-width:2;"/>
   </g>
   <g id="patch_3">
    <path d="M 35.304688 239.758125 
L 35.304688 22.318125 
" style="fill:none;stroke:#000000;stroke-linecap:square;stroke-linejoin:miter;stroke-width:0.8;"/>
   </g>
   <g id="patch_4">
    <path d="M 370.104688 239.758125 
L 370.104688 22.318125 
" style="fill:none;stroke:#000000;stroke-linecap:square;stroke-linejoin:miter;stroke-width:0.8;"/>
   </g>
   <g id="patch_5">
    <path d="M 35.304688 239.758125 
L 370.104688 239.758125 
" style="fill:none;stroke:#000000;stroke-linecap:square;stroke-linejoin:miter;stroke-width:0.8;"/>
   </g>
   <g id="patch_6">
    <path d="M 35.304688 22.318125 
L 370.104688 22.318125 
" style="fill:none;stroke:#000000;stroke-linecap:square;stroke-linejoin:miter;stroke-width:0.8;"/>
   </g>
   <g id="text_11">
    <!-- Model found: -0.30x^3 -0.02x^2 -0.01x +0.24 Error: 3987.34 -->
    <defs>
     <path d="M 9.8125 72.90625 
L 24.515625 72.90625 
L 43.109375 23.296875 
L 61.8125 72.90625 
L 76.515625 72.90625 
L 76.515625 0 
L 66.890625 0 
L 66.890625 64.015625 
L 48.09375 14.015625 
L 38.1875 14.015625 
L 19.390625 64.015625 
L 19.390625 0 
L 9.8125 0 
z
" id="DejaVuSans-77"/>
     <path d="M 30.609375 48.390625 
Q 23.390625 48.390625 19.1875 42.75 
Q 14.984375 37.109375 14.984375 27.296875 
Q 14.984375 17.484375 19.15625 11.84375 
Q 23.34375 6.203125 30.609375 6.203125 
Q 37.796875 6.203125 41.984375 11.859375 
Q 46.1875 17.53125 46.1875 27.296875 
Q 46.1875 37.015625 41.984375 42.703125 
Q 37.796875 48.390625 30.609375 48.390625 
z
M 30.609375 56 
Q 42.328125 56 49.015625 48.375 
Q 55.71875 40.765625 55.71875 27.296875 
Q 55.71875 13.875 49.015625 6.21875 
Q 42.328125 -1.421875 30.609375 -1.421875 
Q 18.84375 -1.421875 12.171875 6.21875 
Q 5.515625 13.875 5.515625 27.296875 
Q 5.515625 40.765625 12.171875 48.375 
Q 18.84375 56 30.609375 56 
z
" id="DejaVuSans-111"/>
     <path d="M 45.40625 46.390625 
L 45.40625 75.984375 
L 54.390625 75.984375 
L 54.390625 0 
L 45.40625 0 
L 45.40625 8.203125 
Q 42.578125 3.328125 38.25 0.953125 
Q 33.9375 -1.421875 27.875 -1.421875 
Q 17.96875 -1.421875 11.734375 6.484375 
Q 5.515625 14.40625 5.515625 27.296875 
Q 5.515625 40.1875 11.734375 48.09375 
Q 17.96875 56 27.875 56 
Q 33.9375 56 38.25 53.625 
Q 42.578125 51.265625 45.40625 46.390625 
z
M 14.796875 27.296875 
Q 14.796875 17.390625 18.875 11.75 
Q 22.953125 6.109375 30.078125 6.109375 
Q 37.203125 6.109375 41.296875 11.75 
Q 45.40625 17.390625 45.40625 27.296875 
Q 45.40625 37.203125 41.296875 42.84375 
Q 37.203125 48.484375 30.078125 48.484375 
Q 22.953125 48.484375 18.875 42.84375 
Q 14.796875 37.203125 14.796875 27.296875 
z
" id="DejaVuSans-100"/>
     <path d="M 56.203125 29.59375 
L 56.203125 25.203125 
L 14.890625 25.203125 
Q 15.484375 15.921875 20.484375 11.0625 
Q 25.484375 6.203125 34.421875 6.203125 
Q 39.59375 6.203125 44.453125 7.46875 
Q 49.3125 8.734375 54.109375 11.28125 
L 54.109375 2.78125 
Q 49.265625 0.734375 44.1875 -0.34375 
Q 39.109375 -1.421875 33.890625 -1.421875 
Q 20.796875 -1.421875 13.15625 6.1875 
Q 5.515625 13.8125 5.515625 26.8125 
Q 5.515625 40.234375 12.765625 48.109375 
Q 20.015625 56 32.328125 56 
Q 43.359375 56 49.78125 48.890625 
Q 56.203125 41.796875 56.203125 29.59375 
z
M 47.21875 32.234375 
Q 47.125 39.59375 43.09375 43.984375 
Q 39.0625 48.390625 32.421875 48.390625 
Q 24.90625 48.390625 20.390625 44.140625 
Q 15.875 39.890625 15.1875 32.171875 
z
" id="DejaVuSans-101"/>
     <path d="M 9.421875 75.984375 
L 18.40625 75.984375 
L 18.40625 0 
L 9.421875 0 
z
" id="DejaVuSans-108"/>
     <path id="DejaVuSans-32"/>
     <path d="M 37.109375 75.984375 
L 37.109375 68.5 
L 28.515625 68.5 
Q 23.6875 68.5 21.796875 66.546875 
Q 19.921875 64.59375 19.921875 59.515625 
L 19.921875 54.6875 
L 34.71875 54.6875 
L 34.71875 47.703125 
L 19.921875 47.703125 
L 19.921875 0 
L 10.890625 0 
L 10.890625 47.703125 
L 2.296875 47.703125 
L 2.296875 54.6875 
L 10.890625 54.6875 
L 10.890625 58.5 
Q 10.890625 67.625 15.140625 71.796875 
Q 19.390625 75.984375 28.609375 75.984375 
z
" id="DejaVuSans-102"/>
     <path d="M 8.5 21.578125 
L 8.5 54.6875 
L 17.484375 54.6875 
L 17.484375 21.921875 
Q 17.484375 14.15625 20.5 10.265625 
Q 23.53125 6.390625 29.59375 6.390625 
Q 36.859375 6.390625 41.078125 11.03125 
Q 45.3125 15.671875 45.3125 23.6875 
L 45.3125 54.6875 
L 54.296875 54.6875 
L 54.296875 0 
L 45.3125 0 
L 45.3125 8.40625 
Q 42.046875 3.421875 37.71875 1 
Q 33.40625 -1.421875 27.6875 -1.421875 
Q 18.265625 -1.421875 13.375 4.4375 
Q 8.5 10.296875 8.5 21.578125 
z
M 31.109375 56 
z
" id="DejaVuSans-117"/>
     <path d="M 54.890625 33.015625 
L 54.890625 0 
L 45.90625 0 
L 45.90625 32.71875 
Q 45.90625 40.484375 42.875 44.328125 
Q 39.84375 48.1875 33.796875 48.1875 
Q 26.515625 48.1875 22.3125 43.546875 
Q 18.109375 38.921875 18.109375 30.90625 
L 18.109375 0 
L 9.078125 0 
L 9.078125 54.6875 
L 18.109375 54.6875 
L 18.109375 46.1875 
Q 21.34375 51.125 25.703125 53.5625 
Q 30.078125 56 35.796875 56 
Q 45.21875 56 50.046875 50.171875 
Q 54.890625 44.34375 54.890625 33.015625 
z
" id="DejaVuSans-110"/>
     <path d="M 11.71875 12.40625 
L 22.015625 12.40625 
L 22.015625 0 
L 11.71875 0 
z
M 11.71875 51.703125 
L 22.015625 51.703125 
L 22.015625 39.3125 
L 11.71875 39.3125 
z
" id="DejaVuSans-58"/>
     <path d="M 4.890625 31.390625 
L 31.203125 31.390625 
L 31.203125 23.390625 
L 4.890625 23.390625 
z
" id="DejaVuSans-45"/>
     <path d="M 10.6875 12.40625 
L 21 12.40625 
L 21 0 
L 10.6875 0 
z
" id="DejaVuSans-46"/>
     <path d="M 40.578125 39.3125 
Q 47.65625 37.796875 51.625 33 
Q 55.609375 28.21875 55.609375 21.1875 
Q 55.609375 10.40625 48.1875 4.484375 
Q 40.765625 -1.421875 27.09375 -1.421875 
Q 22.515625 -1.421875 17.65625 -0.515625 
Q 12.796875 0.390625 7.625 2.203125 
L 7.625 11.71875 
Q 11.71875 9.328125 16.59375 8.109375 
Q 21.484375 6.890625 26.8125 6.890625 
Q 36.078125 6.890625 40.9375 10.546875 
Q 45.796875 14.203125 45.796875 21.1875 
Q 45.796875 27.640625 41.28125 31.265625 
Q 36.765625 34.90625 28.71875 34.90625 
L 20.21875 34.90625 
L 20.21875 43.015625 
L 29.109375 43.015625 
Q 36.375 43.015625 40.234375 45.921875 
Q 44.09375 48.828125 44.09375 54.296875 
Q 44.09375 59.90625 40.109375 62.90625 
Q 36.140625 65.921875 28.71875 65.921875 
Q 24.65625 65.921875 20.015625 65.03125 
Q 15.375 64.15625 9.8125 62.3125 
L 9.8125 71.09375 
Q 15.4375 72.65625 20.34375 73.4375 
Q 25.25 74.21875 29.59375 74.21875 
Q 40.828125 74.21875 47.359375 69.109375 
Q 53.90625 64.015625 53.90625 55.328125 
Q 53.90625 49.265625 50.4375 45.09375 
Q 46.96875 40.921875 40.578125 39.3125 
z
" id="DejaVuSans-51"/>
     <path d="M 54.890625 54.6875 
L 35.109375 28.078125 
L 55.90625 0 
L 45.3125 0 
L 29.390625 21.484375 
L 13.484375 0 
L 2.875 0 
L 24.125 28.609375 
L 4.6875 54.6875 
L 15.28125 54.6875 
L 29.78125 35.203125 
L 44.28125 54.6875 
z
" id="DejaVuSans-120"/>
     <path d="M 46.6875 72.90625 
L 73.1875 45.703125 
L 63.375 45.703125 
L 41.890625 64.984375 
L 20.40625 45.703125 
L 10.59375 45.703125 
L 37.109375 72.90625 
z
" id="DejaVuSans-94"/>
     <path d="M 12.40625 8.296875 
L 28.515625 8.296875 
L 28.515625 63.921875 
L 10.984375 60.40625 
L 10.984375 69.390625 
L 28.421875 72.90625 
L 38.28125 72.90625 
L 38.28125 8.296875 
L 54.390625 8.296875 
L 54.390625 0 
L 12.40625 0 
z
" id="DejaVuSans-49"/>
     <path d="M 46 62.703125 
L 46 35.5 
L 73.1875 35.5 
L 73.1875 27.203125 
L 46 27.203125 
L 46 0 
L 37.796875 0 
L 37.796875 27.203125 
L 10.59375 27.203125 
L 10.59375 35.5 
L 37.796875 35.5 
L 37.796875 62.703125 
z
" id="DejaVuSans-43"/>
     <path d="M 9.8125 72.90625 
L 55.90625 72.90625 
L 55.90625 64.59375 
L 19.671875 64.59375 
L 19.671875 43.015625 
L 54.390625 43.015625 
L 54.390625 34.71875 
L 19.671875 34.71875 
L 19.671875 8.296875 
L 56.78125 8.296875 
L 56.78125 0 
L 9.8125 0 
z
" id="DejaVuSans-69"/>
     <path d="M 41.109375 46.296875 
Q 39.59375 47.171875 37.8125 47.578125 
Q 36.03125 48 33.890625 48 
Q 26.265625 48 22.1875 43.046875 
Q 18.109375 38.09375 18.109375 28.8125 
L 18.109375 0 
L 9.078125 0 
L 9.078125 54.6875 
L 18.109375 54.6875 
L 18.109375 46.1875 
Q 20.953125 51.171875 25.484375 53.578125 
Q 30.03125 56 36.53125 56 
Q 37.453125 56 38.578125 55.875 
Q 39.703125 55.765625 41.0625 55.515625 
z
" id="DejaVuSans-114"/>
     <path d="M 10.984375 1.515625 
L 10.984375 10.5 
Q 14.703125 8.734375 18.5 7.8125 
Q 22.3125 6.890625 25.984375 6.890625 
Q 35.75 6.890625 40.890625 13.453125 
Q 46.046875 20.015625 46.78125 33.40625 
Q 43.953125 29.203125 39.59375 26.953125 
Q 35.25 24.703125 29.984375 24.703125 
Q 19.046875 24.703125 12.671875 31.3125 
Q 6.296875 37.9375 6.296875 49.421875 
Q 6.296875 60.640625 12.9375 67.421875 
Q 19.578125 74.21875 30.609375 74.21875 
Q 43.265625 74.21875 49.921875 64.515625 
Q 56.59375 54.828125 56.59375 36.375 
Q 56.59375 19.140625 48.40625 8.859375 
Q 40.234375 -1.421875 26.421875 -1.421875 
Q 22.703125 -1.421875 18.890625 -0.6875 
Q 15.09375 0.046875 10.984375 1.515625 
z
M 30.609375 32.421875 
Q 37.25 32.421875 41.125 36.953125 
Q 45.015625 41.5 45.015625 49.421875 
Q 45.015625 57.28125 41.125 61.84375 
Q 37.25 66.40625 30.609375 66.40625 
Q 23.96875 66.40625 20.09375 61.84375 
Q 16.21875 57.28125 16.21875 49.421875 
Q 16.21875 41.5 20.09375 36.953125 
Q 23.96875 32.421875 30.609375 32.421875 
z
" id="DejaVuSans-57"/>
     <path d="M 31.78125 34.625 
Q 24.75 34.625 20.71875 30.859375 
Q 16.703125 27.09375 16.703125 20.515625 
Q 16.703125 13.921875 20.71875 10.15625 
Q 24.75 6.390625 31.78125 6.390625 
Q 38.8125 6.390625 42.859375 10.171875 
Q 46.921875 13.96875 46.921875 20.515625 
Q 46.921875 27.09375 42.890625 30.859375 
Q 38.875 34.625 31.78125 34.625 
z
M 21.921875 38.8125 
Q 15.578125 40.375 12.03125 44.71875 
Q 8.5 49.078125 8.5 55.328125 
Q 8.5 64.0625 14.71875 69.140625 
Q 20.953125 74.21875 31.78125 74.21875 
Q 42.671875 74.21875 48.875 69.140625 
Q 55.078125 64.0625 55.078125 55.328125 
Q 55.078125 49.078125 51.53125 44.71875 
Q 48 40.375 41.703125 38.8125 
Q 48.828125 37.15625 52.796875 32.3125 
Q 56.78125 27.484375 56.78125 20.515625 
Q 56.78125 9.90625 50.3125 4.234375 
Q 43.84375 -1.421875 31.78125 -1.421875 
Q 19.734375 -1.421875 13.25 4.234375 
Q 6.78125 9.90625 6.78125 20.515625 
Q 6.78125 27.484375 10.78125 32.3125 
Q 14.796875 37.15625 21.921875 38.8125 
z
M 18.3125 54.390625 
Q 18.3125 48.734375 21.84375 45.5625 
Q 25.390625 42.390625 31.78125 42.390625 
Q 38.140625 42.390625 41.71875 45.5625 
Q 45.3125 48.734375 45.3125 54.390625 
Q 45.3125 60.0625 41.71875 63.234375 
Q 38.140625 66.40625 31.78125 66.40625 
Q 25.390625 66.40625 21.84375 63.234375 
Q 18.3125 60.0625 18.3125 54.390625 
z
" id="DejaVuSans-56"/>
     <path d="M 8.203125 72.90625 
L 55.078125 72.90625 
L 55.078125 68.703125 
L 28.609375 0 
L 18.3125 0 
L 43.21875 64.59375 
L 8.203125 64.59375 
z
" id="DejaVuSans-55"/>
    </defs>
    <g transform="translate(17.467813 16.318125)scale(0.12 -0.12)">
     <use xlink:href="#DejaVuSans-77"/>
     <use x="86.279297" xlink:href="#DejaVuSans-111"/>
     <use x="147.460938" xlink:href="#DejaVuSans-100"/>
     <use x="210.9375" xlink:href="#DejaVuSans-101"/>
     <use x="272.460938" xlink:href="#DejaVuSans-108"/>
     <use x="300.244141" xlink:href="#DejaVuSans-32"/>
     <use x="332.03125" xlink:href="#DejaVuSans-102"/>
     <use x="367.236328" xlink:href="#DejaVuSans-111"/>
     <use x="428.417969" xlink:href="#DejaVuSans-117"/>
     <use x="491.796875" xlink:href="#DejaVuSans-110"/>
     <use x="555.175781" xlink:href="#DejaVuSans-100"/>
     <use x="618.652344" xlink:href="#DejaVuSans-58"/>
     <use x="652.34375" xlink:href="#DejaVuSans-32"/>
     <use x="684.130859" xlink:href="#DejaVuSans-45"/>
     <use x="720.214844" xlink:href="#DejaVuSans-48"/>
     <use x="783.837891" xlink:href="#DejaVuSans-46"/>
     <use x="815.625" xlink:href="#DejaVuSans-51"/>
     <use x="879.248047" xlink:href="#DejaVuSans-48"/>
     <use x="942.871094" xlink:href="#DejaVuSans-120"/>
     <use x="1002.050781" xlink:href="#DejaVuSans-94"/>
     <use x="1085.839844" xlink:href="#DejaVuSans-51"/>
     <use x="1149.462891" xlink:href="#DejaVuSans-32"/>
     <use x="1181.25" xlink:href="#DejaVuSans-45"/>
     <use x="1217.333984" xlink:href="#DejaVuSans-48"/>
     <use x="1280.957031" xlink:href="#DejaVuSans-46"/>
     <use x="1312.744141" xlink:href="#DejaVuSans-48"/>
     <use x="1376.367188" xlink:href="#DejaVuSans-50"/>
     <use x="1439.990234" xlink:href="#DejaVuSans-120"/>
     <use x="1499.169922" xlink:href="#DejaVuSans-94"/>
     <use x="1582.958984" xlink:href="#DejaVuSans-50"/>
     <use x="1646.582031" xlink:href="#DejaVuSans-32"/>
     <use x="1678.369141" xlink:href="#DejaVuSans-45"/>
     <use x="1714.453125" xlink:href="#DejaVuSans-48"/>
     <use x="1778.076172" xlink:href="#DejaVuSans-46"/>
     <use x="1809.863281" xlink:href="#DejaVuSans-48"/>
     <use x="1873.486328" xlink:href="#DejaVuSans-49"/>
     <use x="1937.109375" xlink:href="#DejaVuSans-120"/>
     <use x="1996.289062" xlink:href="#DejaVuSans-32"/>
     <use x="2028.076172" xlink:href="#DejaVuSans-43"/>
     <use x="2111.865234" xlink:href="#DejaVuSans-48"/>
     <use x="2175.488281" xlink:href="#DejaVuSans-46"/>
     <use x="2207.275391" xlink:href="#DejaVuSans-50"/>
     <use x="2270.898438" xlink:href="#DejaVuSans-52"/>
     <use x="2334.521484" xlink:href="#DejaVuSans-32"/>
     <use x="2366.308594" xlink:href="#DejaVuSans-69"/>
     <use x="2429.492188" xlink:href="#DejaVuSans-114"/>
     <use x="2468.855469" xlink:href="#DejaVuSans-114"/>
     <use x="2507.71875" xlink:href="#DejaVuSans-111"/>
     <use x="2568.900391" xlink:href="#DejaVuSans-114"/>
     <use x="2608.263672" xlink:href="#DejaVuSans-58"/>
     <use x="2641.955078" xlink:href="#DejaVuSans-32"/>
     <use x="2673.742188" xlink:href="#DejaVuSans-51"/>
     <use x="2737.365234" xlink:href="#DejaVuSans-57"/>
     <use x="2800.988281" xlink:href="#DejaVuSans-56"/>
     <use x="2864.611328" xlink:href="#DejaVuSans-55"/>
     <use x="2928.234375" xlink:href="#DejaVuSans-46"/>
     <use x="2960.021484" xlink:href="#DejaVuSans-51"/>
     <use x="3023.644531" xlink:href="#DejaVuSans-52"/>
    </g>
   </g>
  </g>
 </g>
 <defs>
  <clipPath id="pc4acf42758">
   <rect height="217.44" width="334.8" x="35.304688" y="22.318125"/>
  </clipPath>
 </defs>
</svg>
